<?xml version="1.0" encoding="UTF-8"?>
<svg width="3600pt" height="3600pt" version="1.1" viewBox="0 0 3600 3600" xmlns="http://www.w3.org/2000/svg">
 <g>
  <path d="m1728 1094.4c0 35.789-29.012 64.801-64.801 64.801-35.789 0-64.801-29.012-64.801-64.801 0-35.785 29.012-64.797 64.801-64.797 35.789 0 64.801 29.012 64.801 64.797"/>
  <path d="m2001.6 1094.4c0 35.789-29.012 64.801-64.801 64.801-35.789 0-64.801-29.012-64.801-64.801 0-35.785 29.012-64.797 64.801-64.797 35.789 0 64.801 29.012 64.801 64.797"/>
  <path d="m1800 1396.8c64.801 0 126-28.801 158.4-79.199 10.801-18 7.1992-39.602-10.801-50.398-18-10.801-39.602-7.1992-50.398 10.801-18 28.801-54 46.801-93.602 46.801-39.602 0-75.602-18-93.602-46.801-10.801-18-32.398-21.602-50.398-10.801s-21.602 32.398-10.801 50.398c25.203 50.398 86.402 79.199 151.2 79.199z"/>
  <path d="m1242 2084.4h1116c36 0 61.199-28.801 61.199-61.199v-151.2c0-133.2-108-241.2-241.2-241.2h-151.2l-25.199-97.199c18-14.398 36-25.199 50.398-39.602 50.398 3.6016 97.199 10.801 136.8 14.398 43.199 7.1992 82.801-28.801 79.199-72-3.6016-54-7.1992-129.6-14.398-216 28.801-21.602 43.199-61.199 43.199-111.6 0-61.199-14.398-100.8-43.199-126-7.1992-3.6016-14.398-10.801-21.602-14.398-32.398-363.6-284.4-403.2-432-403.2s-399.6 39.602-439.2 406.8c-7.1992 3.6016-18 10.801-21.602 14.398-28.801 25.199-43.199 68.398-43.199 126 0 54 14.398 90 43.199 111.6-7.1992 82.801-10.801 158.4-14.398 216-3.6016 43.199 36 79.199 79.199 72 39.602-7.1992 86.398-10.801 136.8-14.398 14.398 14.398 32.398 28.801 50.398 39.602l-25.199 97.199h-151.2c-133.2 0-241.2 108-241.2 241.2v151.2c7.1992 28.801 36 57.598 68.398 57.598zm694.8-349.2-97.199 72c-25.199 18-57.602 18-79.199 0l-97.199-72c-21.602-18-32.398-43.199-25.199-68.398l25.199-93.602c43.199 18 90 28.801 136.8 28.801 46.801 0 93.602-10.801 136.8-28.801l25.199 93.602c7.1953 25.199-3.6055 50.398-25.203 68.398zm-475.2-514.8c-3.6016-21.602-21.602-39.602-43.199-43.199-28.801-3.6016-46.801-3.6016-46.801-64.801 0-46.801 10.801-64.801 18-72 0 0 3.6016-3.6016 7.1992-3.6016 3.6016 14.398 14.398 25.199 28.801 28.801 21.602 3.6016 39.602-10.801 43.199-28.801 14.398-86.398 32.398-154.8 61.199-201.6l21.602 90c3.6016 14.398 18 25.199 32.398 25.199h435.6c14.398 0 28.801-10.801 32.398-25.199l21.602-90c28.801 46.801 43.199 115.2 61.199 201.6 3.6016 18 18 32.398 36 32.398h7.1992c14.398-3.6016 25.199-14.398 28.801-28.801 3.6016 0 7.1992 3.6016 7.1992 3.6016 7.1992 7.1992 18 21.602 18 72 0 61.199-21.602 64.801-46.801 64.801-21.602 3.6016-39.602 21.602-43.199 43.199-10.801 93.602-68.398 180-176.4 255.6-93.602 68.398-226.8 68.398-320.4 0-115.2-79.199-172.8-165.6-183.6-259.2z"/>
  <path d="m2862 90h-2124c-54 0-97.199 43.199-97.199 97.199v3225.6c0 54 43.199 97.199 97.199 97.199h2124c54 0 97.199-43.199 97.199-97.199v-3225.6c0-54-43.199-97.199-97.199-97.199zm-97.199 3225.6h-1929.6v-3031.2h1929.6z"/>
  <path d="m2314.8 2365.2h-1029.6c-54 0-97.199 43.199-97.199 97.199s43.199 97.199 97.199 97.199h1033.2c54 0 97.199-43.199 97.199-97.199 0.003906-54-46.797-97.199-100.8-97.199z"/>
  <path d="m2314.8 2818.8h-1029.6c-54 0-97.199 43.199-97.199 97.199s43.199 97.199 97.199 97.199h1033.2c54 0 97.199-43.199 97.199-97.199 0.003906-54-46.797-97.199-100.8-97.199z"/>
 </g>
</svg>
